<?xml version="1.0" encoding="utf-8"?>
<!-- Designed by Vexels.com - 2019 All Rights Reserved - https://vexels.com/terms-and-conditions/  -->
<svg version="1.1" id="Layer_1" xmlns="http://www.w3.org/2000/svg" xmlns:xlink="http://www.w3.org/1999/xlink" x="0px" y="0px"
	 viewBox="0 0 1200 1200" enable-background="new 0 0 1200 1200" xml:space="preserve">
<g>
	<path fill="#ff9912" d="M1032.464,446.624c-0.73-2.101-1.454-4.214-2.19-6.295c25.333-43.905,63.845-103.269,27.72-168.526
		c-30.474-55.05-95.585-40.825-131.798-21.415C790.946,89.83,622.388,116.202,603.018,119.867
		c-19.433-3.678-189.042-30.235-324.514,132.086c-35.55-20.164-103.306-36.666-134.592,19.85
		c-36.521,65.973,3.232,125.916,28.538,169.956C23.795,586.253,21.318,814.913,107.105,935.305
		c65.212,91.517,180.629,123.048,286.678,135.907c138.982,16.853,280.909,17.432,419.783-0.911
		c103.815-13.712,215.503-45.422,279.33-134.996C1177.728,816.255,1176.246,591.34,1032.464,446.624z M815.768,269.457
		c39.417-6.814,78.107,16.14,105.248,42.791c11.192,10.989-7.749,26.242-18.794,15.399c-20.962-20.579-52.26-39.45-82.644-34.201
		C804.136,296.118,800.341,272.122,815.768,269.457z M166.474,287.252c22.088-39.902,69.196-29.742,95.57-15.697
		c-27.545,36.81-53.314,82.1-75.646,137.823C167.98,377.5,140.32,334.499,166.474,287.252z M261.86,343.454
		c27.275-26.556,66.101-49.363,105.528-42.374c15.427,2.736,11.523,26.736-3.921,23.996c-30.388-5.387-61.799,13.364-82.862,33.869
		C269.502,369.754,250.61,354.407,261.86,343.454z M290.962,475.672c-12.101,6.514-21.198-8.564-15.663-18.532
		c16.777-30.222,61.048-33.574,91.544-32.729c19.573,0.542,38.55,4.246,55.652,12.008c-7.851-14.353-20.706-26.113-35.591-33.818
		c-17.097-8.851-7.667-37.173,10.662-28.813c38.673,17.638,60.624,55.622,65.019,96.885c1.76,16.515-16.83,24.72-28.352,13.314
		c-18.73-18.54-45.006-24.74-70.583-25.892c-13.55-0.611-27.561-0.347-40.834,2.704
		C310.792,463.563,301.619,469.935,290.962,475.672z M858.926,554.811c-21.599,5.336-40.046,4.543-55.508-0.65
		c21.046,36.741,33.967,82.618,33.162,138.562c-1.547,107.519-16.788,157.968-36.291,178.059c0.02,0.142,0.054,0.278,0.073,0.42
		c1.642,12.738-4.807,24.034-15.97,28.894c-22.016,46.893-65.426,116.512-177.596,116.512c-1.291,0-2.525-0.035-3.778-0.06
		c-1.253,0.024-2.485,0.06-3.778,0.06c-109.686,0-153.631-66.579-176.109-113.374c-22.31-4.706-43.993-19.308-57.957-38.511
		c-1.077,0.139-2.168,0.21-3.266,0.21c-9.184,0-17.74-4.855-22.327-12.671c-4.535-7.728-4.482-17.286,0.144-25.569
		c6.614-11.843,18.556-23.893,32.454-31.967c-4.274-26.267-7.012-59.696-7.62-102.003c-2.624-182.244,140.269-257.82,235.993-257.85
		v-0.001l0.018,0.001l0.019-0.001v0.001c45.227,0.014,100.977,16.905,146.94,53.93c-21.127-75.461,19.576-180.993,111.398-148.285
		C974.617,381.726,946.925,533.067,858.926,554.811z M943.24,273.182c25.666-14.822,75.563-27.357,98.495,14.07
		c27.356,49.416-4.159,94.187-22.396,126.447C996.949,356.849,971.023,310.639,943.24,273.182z"/>
	<path fill="#ff9912" d="M428.755,888.958c4.031,0.681,8.026,1.001,11.972,1.001c22.072,0,42.712-10.027,60.76-23.219
		c0.05,0.018,0.091,0.045,0.143,0.063c27.97,9.389,56.764,21.686,86.563,23.058c2.334,0.108,4.667,0.159,6.994,0.159
		c30.119,0,59.628-8.667,88.227-17.301c2.442-0.737,4.565-2.121,6.221-3.874c18.673,12.911,39.747,21.294,62.508,21.294
		c7.861,0,15.921-0.999,24.156-3.157c13.988-3.667,10.888-24.303-1.656-24.303c-1.032,0-2.127,0.139-3.283,0.44
		c-6.591,1.712-13.003,2.504-19.223,2.504c-38.335,0-69.503-30.056-92.161-59.996c-13.158-17.388-25.083-35.871-34.045-55.795
		c-9.021-20.053-12.131-39.309-12.636-60.382c23.596-7.267,36.284-39.391,54.132-54.422c24.914-20.981,73.431-13.114,73.431-56.385
		c0-68.155-88.145-89.617-137.357-90.478c-0.484,0-0.982,0.005-1.474,0.01c-0.193-0.002-0.386-0.004-0.581-0.004
		c-0.302,0-0.607,0.004-0.914,0.021c-49.191,0.833-137.336,22.295-137.336,90.45c0,43.264,48.501,35.407,73.43,56.385
		c16.861,14.192,28.292,40.608,48.569,51.265c-11.548,49.03-26.165,87.918-61.924,126.853
		c-19.326,21.042-43.558,45.305-72.657,51.093c-3.786,0.753-7.327,1.104-10.651,1.104c-23.746,0-36.584-17.902-51.123-35.044
		c0.771-0.416,1.507-0.899,2.301-1.276c8-3.808,17.699-2.937,25.089-7.391c6.164-3.716,8.986-14.699,0.974-18.598
		c-4.067-1.979-8.414-2.859-12.863-2.86c-20.234-0.003-42.663,18.187-51.43,33.884c-4.734,8.477,1.77,15.773,8.997,15.773
		c3.066,0,6.263-1.313,8.786-4.407c0.066-0.083,0.146-0.155,0.214-0.237C381.872,867.318,405.685,885.064,428.755,888.958z
		 M594.118,750.336c1.542-2.132,3.063-4.279,4.572-6.436c9.812,29.486,28.605,57.552,45.348,79.868
		c6.203,8.267,13.062,16.328,20.49,23.832c-2.213,4.757-5.354,7.827-9.5,9.818c-18.723,8.989-21.143-4.1-34.107-0.352
		c-11.776,3.402-18.238-13.253-20.365-48.784c-2.074,36.129-8.548,53.075-20.417,49.646c-12.964-3.747-15.385,9.342-34.107,0.353
		c-5.756-2.763-9.591-10.201-11.656-20.727C559.473,811.741,579.984,782.511,594.118,750.336z"/>
	<path fill="#ff9912" d="M849.439,376.781c-98.645-34.72-108.69,167.454,0,140.922C908.008,503.404,926.433,403.886,849.439,376.781
		z M830.774,419.933c-8.027,0-14.535-6.508-14.535-14.535c0-8.027,6.508-14.535,14.535-14.535s14.535,6.507,14.535,14.535
		C845.309,413.426,838.802,419.933,830.774,419.933z M884.714,430.746c0,10.881-8.821,19.702-19.702,19.702
		c-10.881,0-19.702-8.821-19.702-19.702c0-10.881,8.821-19.702,19.702-19.702C875.893,411.044,884.714,419.865,884.714,430.746z"/>
</g>
</svg>
